<svg width="31" height="18" viewBox="0 0 31 18" fill="none" xmlns="http://www.w3.org/2000/svg">
<path d="M15.5 4.75C16.5714 1.95386 20.6181 0.526125 29.4286 0.500005C29.5694 0.499654 29.709 0.517736 29.8392 0.553209C29.9694 0.588681 30.0878 0.640843 30.1874 0.706688C30.287 0.772533 30.3659 0.850758 30.4195 0.936856C30.4732 1.02295 30.5005 1.11522 30.5 1.20834V13.9583C30.5 14.1462 30.3871 14.3264 30.1862 14.4592C29.9852 14.592 29.7127 14.6667 29.4286 14.6667C20.8571 14.6667 17.5458 15.8093 15.5 17.5M15.5 4.75C14.4286 1.95386 10.3819 0.526125 1.57144 0.500005C1.43058 0.499654 1.29102 0.517736 1.16079 0.553209C1.03056 0.588681 0.912235 0.640843 0.812637 0.706688C0.71304 0.772533 0.634139 0.850758 0.580483 0.936856C0.526827 1.02295 0.499476 1.11522 0.500008 1.20834V13.8729C0.500008 14.3103 0.909829 14.6667 1.57144 14.6667C10.1429 14.6667 13.4663 15.8177 15.5 17.5M15.5 4.75V17.5" stroke="#FFFFFC" stroke-linecap="round" stroke-linejoin="round"/>
</svg>
