<svg width="54" height="56" viewBox="0 0 54 56" fill="none" xmlns="http://www.w3.org/2000/svg">
<path d="M45.0003 0H8.99972C4.03325 0.0140004 0.0135004 4.18438 0 9.33304V46.667C0 51.7999 4.05013 56 8.99972 56H45.0003C49.9499 56 54 51.7999 54 46.667V9.33304C54 4.20013 49.9499 0 45.0003 0ZM40.0794 39.329C39.6288 40.4543 38.9167 41.4448 38.002 42.2078C37.057 43.0006 35.8605 43.6551 34.3856 44.1206C32.914 44.5949 31.164 44.8329 29.1356 44.8329H14.6631V12.1646H29.9676C32.7976 12.1646 35.0657 12.8244 36.7633 14.1719C38.4728 15.5247 39.3234 17.5408 39.3234 20.2621C39.3234 21.9072 38.9369 23.3195 38.1573 24.485C37.3827 25.6453 36.2672 26.5518 34.8277 27.1818V27.2886C36.7498 27.7086 38.2366 28.6536 39.2154 30.1237C40.1941 31.5937 40.6953 33.4505 40.6953 35.6941C40.6953 36.9489 40.4608 38.1442 40.0203 39.259L40.0794 39.329ZM33.8321 31.2787C32.909 30.4037 31.6129 29.9767 29.9389 29.9767H20.2135V40.169H29.9659C31.6315 40.169 32.936 39.721 33.8591 38.8162C34.7822 37.9184 35.2547 36.6374 35.2547 34.9888C35.2395 33.3788 34.7822 32.1328 33.8591 31.2787H33.8321ZM32.482 24.6915C33.373 23.9075 33.8101 22.7857 33.8101 21.3227C33.8101 19.6794 33.4169 18.5138 32.617 17.8453C31.8256 17.1803 30.6814 16.8355 29.1795 16.8355H20.1798V25.8501H29.1795C30.4907 25.8501 31.6096 25.451 32.482 24.6915Z" fill="#563D7C"/>
</svg>
