<svg width="54" height="59" viewBox="0 0 54 59" fill="none" xmlns="http://www.w3.org/2000/svg">
<path d="M27 -1.61829e-06C12.0825 -1.61829e-06 0 13.5435 0 30.2479C0 43.6156 7.7355 54.951 18.4612 58.9457C19.8112 59.2311 20.3057 58.2953 20.3057 57.4919C20.3057 56.7735 20.2837 54.8698 20.2719 52.3497C12.7609 54.174 11.178 48.2908 11.178 48.2908C9.9495 44.7991 8.17425 43.8671 8.17425 43.8671C5.72906 41.9917 8.36325 42.0295 8.36325 42.0295C11.0751 42.2412 12.4993 45.145 12.4993 45.145C14.9074 49.7711 18.819 48.4345 20.3631 47.6613C20.6061 45.7046 21.3013 44.3718 22.0725 43.6156C16.0768 42.8594 9.774 40.2581 9.774 28.6675C9.774 25.3648 10.8203 22.6689 12.5533 20.5516C12.2496 19.7878 11.3383 16.712 12.7896 12.5453C12.7896 12.5453 15.0508 11.7343 20.2146 15.6457C22.3746 14.9727 24.6696 14.64 26.9646 14.6249C29.2596 14.64 31.5546 14.9727 33.7146 15.6457C38.8446 11.7343 41.1058 12.5453 41.1058 12.5453C42.5571 16.712 41.6458 19.7878 41.3758 20.5516C43.0971 22.6689 44.1433 25.3667 44.1433 28.6675C44.1433 40.2884 37.8321 42.8462 31.8246 43.5892C32.7696 44.4966 33.6471 46.3512 33.6471 49.185C33.6471 53.2326 33.6133 56.4842 33.6133 57.4673C33.6133 58.2613 34.0858 59.2065 35.4696 58.9041C46.2712 54.9359 54 43.5929 54 30.246C54 13.5416 41.9108 -1.61829e-06 27 -1.61829e-06Z" fill="#DDDDDD"/>
</svg>
