<svg width="54" height="54" viewBox="0 0 54 54" fill="none" xmlns="http://www.w3.org/2000/svg">
<path d="M0 0H54V54H0V0ZM49.5771 41.121C49.1839 38.6572 47.5791 36.5867 42.8203 34.6562C41.1649 33.8799 39.3238 33.3399 38.7771 32.0912C38.5729 31.3487 38.5408 30.9437 38.6741 30.5049C39.0116 29.052 40.7329 28.6149 42.0829 29.0199C42.9604 29.2899 43.7704 29.9649 44.2783 31.0449C46.6054 29.5245 46.6054 29.5245 48.2271 28.5137C47.6196 27.5687 47.3175 27.162 46.9091 26.7587C45.4916 25.1724 43.6033 24.3624 40.5321 24.4316L38.9458 24.6324C37.4254 25.0037 35.9758 25.8137 35.0983 26.8937C32.5333 29.7979 33.2741 34.8604 36.3791 36.9529C39.4504 39.2479 43.9408 39.7524 44.5146 41.9141C45.0546 44.5466 42.5571 45.3904 40.0916 45.0866C38.2674 44.6816 37.2566 43.7687 36.1429 42.0812L32.0254 44.4454C32.4979 45.5254 33.0379 45.9962 33.8479 46.9412C37.7629 50.8916 47.5504 50.6891 49.3071 44.6816C49.3729 44.4791 49.8471 43.0954 49.4741 40.9691L49.5771 41.121ZM29.3642 24.8197H24.3068C24.3068 29.1803 24.2865 33.5137 24.2865 37.881C24.2865 40.6536 24.4283 43.1983 23.976 43.9813C23.2335 45.5321 21.3216 45.333 20.4525 45.0613C19.5615 44.6209 19.1092 44.0134 18.5844 43.1376C18.4427 42.9013 18.3364 42.6971 18.2992 42.6971L14.1936 45.2284C14.8804 46.6459 15.8811 47.8659 17.172 48.6422C19.0957 49.7897 21.681 50.1609 24.3877 49.5534C26.1495 49.0455 27.6683 47.9992 28.4631 46.3792C29.6106 44.2867 29.3676 41.7218 29.3557 38.8513C29.3827 34.2293 29.3557 29.6055 29.3557 24.948L29.3642 24.8197Z" fill="#F7DF1E"/>
</svg>
