<svg width="29" height="29" viewBox="0 0 29 29" fill="none" xmlns="http://www.w3.org/2000/svg">
<path d="M14.5001 16.5C19.2583 16.5 23.1155 12.9183 23.1155 8.49999C23.1155 4.08172 19.2583 0.5 14.5001 0.5C9.742 0.5 5.88477 4.08172 5.88477 8.49999C5.88477 12.9183 9.742 16.5 14.5001 16.5Z" stroke="#FFFFFC" stroke-linecap="round" stroke-linejoin="round"/>
<path d="M6.93798 12.7388L0.5 23.5L6.34635 23.4738C6.53366 23.4729 6.71799 23.5174 6.88112 23.6029C7.04425 23.6884 7.18054 23.8119 7.27654 23.9613L10.1923 28.5L16.1376 16.355" stroke="#FFFFFC" stroke-linecap="round" stroke-linejoin="round"/>
<path d="M21.9402 12.5L28.5 23.5L22.6537 23.4737C22.4663 23.4729 22.282 23.5174 22.1189 23.6029C21.9558 23.6884 21.8195 23.8119 21.7235 23.9612L18.8077 28.5L14.5 19.7" stroke="#FFFFFC" stroke-linecap="round" stroke-linejoin="round"/>
<path d="M14.5001 12.5C16.8791 12.5 18.8078 10.7091 18.8078 8.5C18.8078 6.29086 16.8791 4.5 14.5001 4.5C12.121 4.5 10.1924 6.29086 10.1924 8.5C10.1924 10.7091 12.121 12.5 14.5001 12.5Z" stroke="#FFFFFC" stroke-linecap="round" stroke-linejoin="round"/>
</svg>
