<svg width="20" height="20" viewBox="0 0 20 20" fill="none" xmlns="http://www.w3.org/2000/svg">
<path d="M20 13V3C20 2.172 19.663 1.42 19.121 0.879C18.579 0.338 17.828 0 17 0H3C2.172 0 1.42 0.337 0.879 0.879C0.338 1.421 0 2.172 0 3V19C0 19.256 0.098 19.512 0.293 19.707C0.684 20.098 1.317 20.098 1.707 19.707L5.414 16H17C17.828 16 18.58 15.663 19.121 15.121C19.662 14.579 20 13.828 20 13ZM18 13C18 13.276 17.889 13.525 17.707 13.707C17.525 13.889 17.276 14 17 14H5C4.724 14 4.474 14.112 4.293 14.293L2 16.586V3C2 2.724 2.111 2.475 2.293 2.293C2.475 2.111 2.724 2 3 2H17C17.276 2 17.525 2.111 17.707 2.293C17.889 2.475 18 2.724 18 3V13Z" fill="white" fill-opacity="0.34"/>
</svg>
