<svg width="76" height="41" viewBox="0 0 76 41" fill="none" xmlns="http://www.w3.org/2000/svg">
<path d="M22.1991 14.675H19.209L17.5774 23.2755H20.2302C21.9901 23.2755 23.3011 22.9345 24.1632 22.2549C25.0254 21.5729 25.6049 20.4403 25.9041 18.8474C26.1962 17.3202 26.0632 16.2436 25.5122 15.6152C24.9589 14.9892 23.8569 14.6726 22.1967 14.6726L22.1991 14.675ZM38 0C17.0145 0 0 9.17769 0 20.4988C0 31.8199 17.0145 41 38 41C58.9855 41 76 31.8199 76 20.4988C76 9.17769 58.9855 0 38 0ZM27.6759 24.1986C26.8494 25.0097 25.8543 25.621 24.7713 25.9888C23.7073 26.3396 22.3488 26.5222 20.7029 26.5222H16.9623L15.9267 31.9806H11.5639L15.4589 11.4356H23.8497C26.3744 11.4356 28.2126 12.1151 29.3716 13.4742C30.5306 14.8309 30.8798 16.7283 30.4166 19.164C30.2219 20.1992 29.887 21.1199 29.4286 21.9602L29.4524 21.9139C28.9988 22.7421 28.4074 23.5069 27.6759 24.1986ZM40.4201 26.5198L42.1396 17.4298C42.3391 16.3971 42.2631 15.6883 41.9235 15.3156C41.5839 14.9381 40.8595 14.7506 39.748 14.7506H36.29L34.0599 26.5222H29.7279L33.6229 5.97475H37.9525L36.917 11.438H40.774C43.2036 11.438 44.8756 11.874 45.7971 12.7411C46.7186 13.6082 46.9941 15.0136 46.6308 16.9597L44.8186 26.5198H40.4201ZM64.4765 19.164C64.2865 20.1992 63.9516 21.1199 63.4885 21.9602L63.5123 21.9164C63.0586 22.7445 62.4672 23.5069 61.7357 24.1986C60.933 24.9853 59.964 25.5967 58.8858 25.9718L58.8311 25.9888C57.7671 26.3396 56.4086 26.5222 54.758 26.5222H51.0221L49.9866 31.9855H45.6237L49.5188 11.4404H57.9072C60.4319 11.4404 62.2701 12.12 63.4291 13.4791C64.5881 14.8334 64.9396 16.7308 64.4765 19.1665V19.164ZM56.259 14.675H53.2736L51.6396 23.2755H54.2925C56.0571 23.2755 57.3681 22.9345 58.2255 22.2549C59.0876 21.5729 59.6671 20.4403 59.9711 18.8474C60.2632 17.3202 60.1255 16.2436 59.5745 15.6152C59.0235 14.9868 57.9144 14.6726 56.259 14.6726V14.675Z" fill="#777BB4"/>
</svg>
