<svg width="54" height="62" viewBox="0 0 54 62" fill="none" xmlns="http://www.w3.org/2000/svg">
<g clip-path="url(#clip0_304_1081)">
<path d="M32.1974 0.465L34.2224 0.982313L35.8644 1.65462L37.1924 2.42962L38.2049 3.25694L38.9694 4.13462L39.5313 5.01231L39.8907 5.86481L40.1152 6.63981L40.2046 7.31212L40.2502 7.82944L40.2282 8.16463V21.9596L40.1152 23.5871L39.8232 25.0073L39.3507 26.195L38.7652 27.1773L38.0902 27.9775L37.3477 28.6227L36.5596 29.1129L35.7715 29.4752L35.029 29.7329L34.354 29.9131L33.7685 30.0157L33.296 30.0681H19.8635L18.311 30.1979L16.9829 30.5602L15.8574 31.1279L14.9343 31.8254L14.1918 32.6527L13.5843 33.5575L13.1337 34.4875L12.7962 35.4427L12.5718 36.3475L12.4149 37.1748L12.3254 37.8723L12.2799 38.4148V46.3198H7.26291L6.79041 46.2423L6.16098 46.0621L5.44041 45.7521L4.65235 45.2871L3.84235 44.6148L3.03235 43.6848L2.24429 42.4971L1.52373 40.9723L0.894289 39.0871L0.421789 36.8144L0.106227 34.1019L-0.00683594 30.9244L0.128164 27.7721L0.487602 25.0848L1.0276 22.8373L1.74816 21.0025L2.55816 19.53L3.4576 18.3927L4.4026 17.5402L5.3476 16.9202L6.24704 16.5075L7.05704 16.2498L7.7776 16.12L8.3176 16.0948H8.67704L8.81204 16.12H27.172V13.9752H14.0315L14.0095 6.87038L13.964 5.91519L14.077 5.0375L14.3251 4.23731L14.7082 3.51463L15.2701 2.84231L15.967 2.2475L16.8226 1.73019L17.8132 1.26519L18.9607 0.877688L20.2651 0.567688L21.7045 0.31L23.3026 0.155L25.0357 0.0523125L26.9257 0L29.7826 0.129813L32.1974 0.465ZM18.0224 5.58L17.5044 6.4325L17.3238 7.49231L17.5044 8.55212L18.0224 9.42981L18.7649 9.9975L19.688 10.23L20.611 9.9975L21.3535 9.42981L21.8716 8.55212L22.0522 7.49231L21.8716 6.4325L21.3535 5.58L20.611 5.01231L19.688 4.77981L18.7649 5.01231L18.0224 5.58ZM47.4743 15.7848L48.1038 15.9398L48.8244 16.2498L49.6124 16.7148L50.4224 17.4123L51.2324 18.3171L52.0205 19.5319L52.741 21.0567L53.3705 22.9419L53.843 25.2146L54.1585 27.9019L54.2716 31.0794L54.1366 34.2569L53.7772 36.9443L53.2372 39.1666L52.5166 41.0014L51.7066 42.4739L50.8072 43.6364L49.8622 44.4889L48.9172 45.1089L48.0177 45.5216L47.2077 45.7541L46.4872 45.8839L45.9472 45.9362L45.5877 45.911H27.0927V48.0287H40.2333L40.2552 55.1587L40.3008 56.0887L40.1877 56.9664L39.9397 57.7666L39.5566 58.5164L38.9947 59.1616L38.2977 59.7816L37.4422 60.2989L36.4516 60.7387L35.3041 61.1262L33.9997 61.4614L32.5602 61.6939L30.9622 61.8741L29.2291 61.9768L27.3391 62.0019L24.4822 61.8993L22.0741 61.5369L20.0491 61.0196L18.4072 60.3744L17.0791 59.5994L16.0666 58.7469L15.3022 57.8693L14.7402 56.9916L14.3808 56.1391L14.1564 55.3641L14.0669 54.7189L14.0214 54.2016L14.0433 53.8664V40.0714L14.1564 38.4187L14.4483 37.0237L14.9208 35.836L15.5064 34.8537L16.1814 34.0264L16.9239 33.4064L17.7119 32.8891L18.5 32.5267L19.2425 32.2691L19.9175 32.1141L20.503 32.0114L20.9755 31.9591L21.2675 31.9339H34.408L35.9605 31.8041L37.2886 31.4418L38.4142 30.8993L39.3372 30.1766L40.0797 29.3492L40.6872 28.4444L41.1378 27.5144L41.4753 26.5844L41.6997 25.6796L41.8567 24.8523L41.9461 24.1296L41.9917 23.5871V15.6821H46.6947L47.0103 15.7073L47.4743 15.7848ZM32.918 52.5973L32.3999 53.4498L32.2194 54.5096L32.3999 55.5694L32.918 56.4219L33.6605 57.0168L34.5835 57.2241L35.5066 57.0168L36.2491 56.4219L36.7672 55.5694L36.9477 54.5096L36.7672 53.4498L36.2491 52.5973L35.5066 52.0025L34.5835 51.7952L33.6605 52.0025L32.918 52.5973Z" fill="#3776AB"/>
</g>
<defs>
<clipPath id="clip0_304_1081">
<rect width="54" height="62" fill="white"/>
</clipPath>
</defs>
</svg>
