<svg width="20" height="19" viewBox="0 0 20 19" fill="none" xmlns="http://www.w3.org/2000/svg">
<path d="M19.0973 1.41359L10.2214 17.6347C10.1985 17.6818 10.1641 17.7228 10.1216 17.7538C10.079 17.7849 10.0296 17.805 9.97781 17.8123C9.92606 17.8197 9.87363 17.8141 9.82535 17.796C9.77707 17.7778 9.73447 17.7478 9.70147 17.7087L6.88837 14.2923C6.84211 14.2361 6.81748 14.1651 6.81872 14.0915C6.81996 14.0179 6.847 13.9463 6.89517 13.889L13.4092 6.1474C13.866 5.6048 13.2488 4.85526 12.6286 5.19946L3.78061 10.1072C3.71528 10.1433 3.63995 10.1561 3.56758 10.1432C3.49522 10.1303 3.43034 10.0926 3.3841 10.0365L0.572242 6.62166C0.429737 6.44859 0.499911 6.16213 0.719799 6.09541L18.3677 0.527463C18.4875 0.491411 18.6142 0.490766 18.7324 0.525609C18.8505 0.560452 18.9549 0.629254 19.0325 0.723517C19.1101 0.81778 19.1576 0.933373 19.1691 1.05601C19.1807 1.17865 19.1557 1.30296 19.0973 1.41359Z" stroke="#FFFFFC" stroke-linecap="round" stroke-linejoin="round"/>
</svg>
