<svg width="67" height="50" viewBox="0 0 67 50" fill="none" xmlns="http://www.w3.org/2000/svg">
<path d="M45.7973 5.05405C45.4769 5.05405 45.2592 5.09778 45.0331 5.15531V5.19443H45.0728C45.2236 5.51433 45.4811 5.74676 45.6695 6.03214C45.8203 6.36123 45.948 6.68803 46.0987 7.01483L46.1385 6.9688C46.4002 6.76628 46.53 6.44178 46.53 5.94698C46.4191 5.802 46.4023 5.65931 46.306 5.51663C46.1951 5.3118 45.9543 5.21054 45.7973 5.05405ZM16.1088 45.5399H13.521C13.4373 40.7462 13.1777 36.2424 12.7673 32.0078H12.7443L8.80813 45.5399H6.84007L2.93116 32.0078H2.90394C2.61711 36.0674 2.43496 40.5782 2.35958 45.5399H0C0.152839 39.508 0.535983 33.8489 1.14525 28.5719H4.35486L8.08162 41.043H8.10465L11.8649 28.5719H14.9217C15.598 34.7557 15.9937 40.4171 16.1088 45.5399ZM27.3226 33.0204C26.2674 39.2963 24.8772 43.8622 23.1582 46.7067C21.812 48.9045 20.3381 50 18.7385 50C18.3114 50 17.79 49.8596 17.1577 49.5765V48.0599C17.4655 48.1129 17.8277 48.1405 18.236 48.1405C18.9834 48.1405 19.5843 47.9103 20.0428 47.4593C20.5935 46.9069 20.8657 46.2879 20.8657 45.6021C20.8657 45.1257 20.65 44.1591 20.2229 42.7046L17.3922 33.0204H19.9319L21.9607 40.2629C22.4192 41.9083 22.6118 43.0544 22.5322 43.708C23.6482 40.4424 24.4249 36.8752 24.8625 33.0204H27.3226ZM61.7302 45.5399H54.3876V28.5719H56.8582V43.4549H61.7302V45.5399ZM52.4615 45.9542L49.6245 44.4192C49.8758 44.1867 50.1186 43.9336 50.3364 43.6528C51.5444 42.0994 52.1453 39.7934 52.1453 36.7395C52.1453 31.1241 50.1417 28.3141 46.1302 28.3141C44.1642 28.3141 42.6295 29.0252 41.524 30.4521C40.3244 32.0101 39.7214 34.3069 39.7214 37.3401C39.7214 40.3227 40.2511 42.5136 41.3231 43.9059C42.3008 45.1648 43.7706 45.7931 45.7428 45.7931C46.4798 45.7931 47.1561 45.6918 47.7674 45.4916L51.467 47.8597L52.4615 45.9542ZM43.2723 42.1431C42.6442 41.0384 42.3322 39.2595 42.3322 36.8154C42.3322 32.5417 43.5151 30.4015 45.8768 30.4015C47.1142 30.4015 48.027 30.9147 48.6049 31.9365C49.2309 33.048 49.5429 34.8086 49.5429 37.2227C49.5429 41.5309 48.3599 43.6919 45.9983 43.6919C44.7567 43.6919 43.8459 43.1787 43.2723 42.1431ZM38.6431 40.8382C38.6431 42.2812 38.1637 43.4641 37.2027 44.3846C36.2417 45.3052 34.9603 45.7655 33.3398 45.7655C31.824 45.7655 30.3689 45.2384 28.9494 44.1844L29.611 42.723C30.8337 43.3973 31.9371 43.7287 32.9337 43.7287C33.8612 43.7287 34.5898 43.5055 35.1195 43.0544C35.645 42.6034 35.9569 41.9682 35.9569 41.1673C35.9569 40.1547 35.3142 39.2963 34.148 38.5736C33.0656 37.9201 30.9007 36.5576 30.9007 36.5576C29.7219 35.6164 29.1357 34.6061 29.1357 32.9468C29.1357 31.5659 29.5733 30.4613 30.4485 29.6167C31.3278 28.7629 32.4584 28.344 33.8549 28.344C35.2849 28.344 36.5913 28.7606 37.7638 29.6029L37.1692 31.0642C36.1642 30.5971 35.1739 30.3577 34.1982 30.3577C33.4089 30.3577 32.7976 30.5671 32.3726 30.9906C31.9454 31.4072 31.6795 31.9411 31.6795 32.5993C31.6795 33.605 32.3328 34.4703 33.5387 35.2067C34.6358 35.8672 36.853 37.2619 36.853 37.2619C38.0611 38.1985 38.662 39.195 38.6452 40.8359L38.6431 40.8382ZM64.833 22.8828C63.3402 22.8391 62.1803 23.0048 61.2131 23.4605C60.9346 23.5825 60.4865 23.5825 60.4489 23.9737C60.6017 24.1371 60.6247 24.4041 60.7566 24.6296C60.9807 25.0415 61.3659 25.5893 61.7218 25.8792C62.1133 26.2175 62.5028 26.542 62.9131 26.8297C63.6396 27.3199 64.4625 27.6122 65.1743 28.107C65.5784 28.3946 65.9929 28.7606 66.4033 29.0667C66.6064 29.2208 66.7383 29.497 67 29.5937V29.5315C66.8723 29.3474 66.8325 29.0805 66.7069 28.8756C66.5205 28.6708 66.3321 28.4867 66.1479 28.2842C65.6056 27.4856 64.9335 26.7906 64.207 26.2129C63.6103 25.7642 62.3039 25.1382 62.0568 24.3879L62.0212 24.3442C62.4295 24.3051 62.9152 24.1417 63.3046 24.0197C63.939 23.8356 64.519 23.8747 65.1743 23.6952C65.4695 23.6124 65.7689 23.5111 66.0683 23.4076V23.2234C65.7333 22.8552 65.4821 22.3558 65.1366 22.0106C64.1882 21.1062 63.1351 20.2247 62.0547 19.486C61.4685 19.0741 60.7252 18.8117 60.1097 18.4619C59.8857 18.3399 59.513 18.2778 59.3832 18.073C59.0482 17.6242 58.8535 17.0304 58.6148 16.4965C58.0788 15.3665 57.5533 14.1192 57.0885 12.9271C56.7535 12.1239 56.5504 11.323 56.1401 10.5866C54.2139 7.09767 52.1286 4.98271 48.921 2.91607C48.2322 2.48571 47.4052 2.3016 46.5321 2.07606C46.0653 2.05075 45.6004 2.01393 45.1357 1.99321C44.8279 1.84823 44.5327 1.45929 44.271 1.27288C43.2095 0.536441 40.4625 -1.05842 39.6816 1.05195C39.1791 2.38445 40.427 3.69623 40.8603 4.37284C41.1807 4.84232 41.5869 5.37854 41.8088 5.90786C41.9407 6.26458 41.9763 6.62819 42.1082 7.00102C42.4034 7.90316 42.686 8.90886 43.0776 9.75347C43.2806 10.1838 43.5047 10.6349 43.7664 11.0215C43.9171 11.2448 44.1747 11.3506 44.2333 11.7188C43.9716 12.1354 43.9548 12.743 43.8041 13.2539C43.1341 15.576 43.3958 18.4481 44.3463 20.158C44.6457 20.6666 45.3576 21.7966 46.3081 21.3639C47.1456 20.9957 46.9613 19.8289 47.2021 18.8025C47.2587 18.5562 47.221 18.3951 47.3361 18.2294V18.2755C47.5978 18.8531 47.8616 19.4009 48.1003 19.9785C48.6761 20.9842 49.681 22.029 50.5206 22.724C50.9666 23.0923 51.3225 23.7297 51.8794 23.9576V23.8954H51.8375C51.7182 23.7182 51.5591 23.6308 51.4083 23.4881C51.0733 23.1199 50.6965 22.6688 50.4306 22.2615C49.6496 21.1039 48.9587 19.8381 48.3453 18.524C48.0375 17.8796 47.7821 17.1869 47.535 16.5517C47.424 16.3055 47.424 15.9373 47.2356 15.8153C46.9572 16.2641 46.5468 16.653 46.3416 17.2053C45.9878 18.0891 45.9501 19.1753 45.8161 20.3053C45.7407 20.326 45.7763 20.3053 45.7407 20.349C45.144 20.1902 44.9388 19.509 44.7169 18.9383C44.1579 17.4815 44.0658 15.1387 44.5494 13.461C44.6813 13.0306 45.2382 11.6751 45.0163 11.2632C44.8991 10.8742 44.5306 10.6487 44.3275 10.3334C44.0846 9.95369 43.825 9.45889 43.6575 9.02393C43.2116 7.87554 42.9875 6.60518 42.5018 5.45909C42.2778 4.92747 41.8883 4.37284 41.5701 3.88495C41.2163 3.33262 40.8248 2.94368 40.5421 2.29009C40.45 2.06686 40.3181 1.69403 40.4667 1.45009C40.5065 1.28439 40.584 1.21995 40.7284 1.17392C40.9734 0.95299 41.6643 1.24066 41.9072 1.36494C42.596 1.67102 43.1781 1.96099 43.7559 2.38905C44.0176 2.59157 44.3003 2.98051 44.6353 3.08177H45.0268C45.6235 3.22675 46.2976 3.12549 46.8546 3.305C47.8449 3.65481 48.7389 4.16342 49.5408 4.71575C51.9862 6.42107 53.9961 8.84212 55.3612 11.7304C55.5852 12.2021 55.6815 12.6348 55.8867 13.1273C56.2782 14.1399 56.7598 15.1617 57.1576 16.1398C57.5491 17.1064 57.926 18.0914 58.4871 18.8922C58.7655 19.3226 59.8878 19.5458 60.3902 19.7691C60.7608 19.9532 61.3387 20.1212 61.6737 20.3467C62.3164 20.7771 62.9403 21.2673 63.5433 21.7391C63.8511 21.9715 64.7807 22.4847 64.8351 22.8989L64.833 22.8828Z" fill="#4479A1"/>
</svg>
