<svg width="16" height="16" viewBox="0 0 16 16" fill="none" xmlns="http://www.w3.org/2000/svg">
<path d="M14.4649 0.500001H10.0323C9.89451 0.4999 9.76225 0.55436 9.66446 0.65148L0.802959 9.51298C0.608927 9.70796 0.5 9.97185 0.5 10.2469C0.5 10.522 0.608927 10.7859 0.802959 10.9809L5.02272 15.2006C5.2177 15.3947 5.48159 15.5036 5.75667 15.5036C6.03175 15.5036 6.29563 15.3947 6.49062 15.2006L15.3485 6.34275C15.4456 6.24495 15.5001 6.11269 15.5 5.97487V1.53871C15.5007 1.40242 15.4744 1.26735 15.4226 1.14126C15.3709 1.01517 15.2947 0.900563 15.1985 0.804024C15.1023 0.707486 14.988 0.630925 14.8621 0.578748C14.7362 0.526572 14.6012 0.499809 14.4649 0.500001Z" stroke="white" stroke-opacity="0.34" stroke-linecap="round" stroke-linejoin="round"/>
<path d="M12.616 4.53945C12.3878 4.53945 12.1646 4.47176 11.9748 4.34494C11.785 4.21813 11.6371 4.03788 11.5498 3.82699C11.4624 3.6161 11.4396 3.38404 11.4841 3.16017C11.5286 2.93629 11.6385 2.73064 11.7999 2.56924C11.9614 2.40783 12.167 2.29791 12.3909 2.25338C12.6148 2.20885 12.8468 2.2317 13.0577 2.31905C13.2686 2.40641 13.4488 2.55433 13.5757 2.74413C13.7025 2.93392 13.7702 3.15706 13.7702 3.38532C13.7702 3.69142 13.6486 3.98497 13.4321 4.20141C13.2157 4.41785 12.9221 4.53945 12.616 4.53945Z" fill="white" fill-opacity="0.34"/>
</svg>
